<?xml version="1.0" encoding="utf-8"?>
<!-- Generator: Adobe Illustrator 25.4.0, SVG Export Plug-In . SVG Version: 6.00 Build 0)  -->
<svg version="1.1" id="Capa_1" xmlns="http://www.w3.org/2000/svg" xmlns:xlink="http://www.w3.org/1999/xlink" x="0px" y="0px"
	 viewBox="0 0 512 512" style="enable-background:new 0 0 512 512;" xml:space="preserve">
<style type="text/css">
	.st0{fill:#006BC0;}
	.st1{fill:#0096DC;}
	.st2{fill:#FFFFFF;}
</style>
<path class="st0" d="M492.3,12.4L455.2,443c-55,42.7-124.1,68.1-199.2,68.1S111.9,485.7,56.8,443L19.7,12.4H492.3z"/>
<polygon class="st1" points="256,52.9 256,502.6 411.3,458.7 446,52.9 "/>
<polygon class="st2" points="393.3,228.8 281.2,228.8 398.3,169.2 403.4,109.3 108.6,109.3 113.8,170.4 232.1,170.4 118.6,227.1 
	123.9,289.7 123.9,289.7 326.4,289.7 319.7,364.2 256,381.4 189.6,362.8 188,316.4 126.1,316.4 133.9,408 256,442.5 378.1,408 
	393.3,228.8 "/>
</svg>
